name baseline.mot
datacolumns 19
datarows 21
range 10.17996500000000 10.21329200000000
endheader
time	ground_force1_vx	ground_force1_vy	ground_force1_vz	ground_force1_px	ground_force1_py	ground_force1_pz	ground_force2_vx	ground_force2_vy	ground_force2_vz	ground_force2_px	ground_force2_py	ground_force2_pz	ground_torque1_x	ground_torque1_y	ground_torque1_z	ground_torque2_x	ground_torque2_y	ground_torque2_z	
10.17996500000000	3.62410100000000	730.79949799999997	31.26310800000000	0.06328800000000	0.00000000000000	0.12107100000000	0.00000000000000	0.00000000000000	0.00000000000000	0.00000000000000	0.00000000000000	0.00000000000000	0.00000000000000	4.71890900000000	0.00000000000000	0.00000000000000	0.00000000000000	0.00000000000000	
10.18162700000000	3.04717200000000	730.97059100000001	31.25736800000000	0.06225700000000	0.00000000000000	0.12105300000000	0.00000000000000	0.00000000000000	0.00000000000000	0.00000000000000	0.00000000000000	0.00000000000000	0.00000000000000	4.81603300000000	0.00000000000000	0.00000000000000	0.00000000000000	0.00000000000000	
10.18329300000000	2.46678400000000	731.12933299999997	31.25343800000000	0.06122400000000	0.00000000000000	0.12103600000000	0.00000000000000	0.00000000000000	0.00000000000000	0.00000000000000	0.00000000000000	0.00000000000000	0.00000000000000	4.91454300000000	0.00000000000000	0.00000000000000	0.00000000000000	0.00000000000000	
10.18495600000000	1.88319100000000	731.27656600000000	31.25135500000000	0.06018900000000	0.00000000000000	0.12101900000000	0.00000000000000	0.00000000000000	0.00000000000000	0.00000000000000	0.00000000000000	0.00000000000000	0.00000000000000	5.01437000000000	0.00000000000000	0.00000000000000	0.00000000000000	0.00000000000000	
10.18662800000000	1.29666200000000	731.41320199999996	31.25115400000000	0.05915000000000	0.00000000000000	0.12100300000000	0.00000000000000	0.00000000000000	0.00000000000000	0.00000000000000	0.00000000000000	0.00000000000000	0.00000000000000	5.11544400000000	0.00000000000000	0.00000000000000	0.00000000000000	0.00000000000000	
10.18829800000000	0.70747800000000	731.54022399999997	31.25287600000000	0.05810900000000	0.00000000000000	0.12098700000000	0.00000000000000	0.00000000000000	0.00000000000000	0.00000000000000	0.00000000000000	0.00000000000000	0.00000000000000	5.21769100000000	0.00000000000000	0.00000000000000	0.00000000000000	0.00000000000000	
10.18997100000000	0.11592600000000	731.65867900000001	31.25655800000000	0.05706400000000	0.00000000000000	0.12097200000000	0.00000000000000	0.00000000000000	0.00000000000000	0.00000000000000	0.00000000000000	0.00000000000000	0.00000000000000	5.32103800000000	0.00000000000000	0.00000000000000	0.00000000000000	0.00000000000000	
10.19162700000000	-0.47769500000000	731.76967200000001	31.26224200000000	0.05601700000000	0.00000000000000	0.12095800000000	0.00000000000000	0.00000000000000	0.00000000000000	0.00000000000000	0.00000000000000	0.00000000000000	0.00000000000000	5.42540900000000	0.00000000000000	0.00000000000000	0.00000000000000	0.00000000000000	
10.19329700000000	-1.07308000000000	731.87436300000002	31.26996700000000	0.05496600000000	0.00000000000000	0.12094400000000	0.00000000000000	0.00000000000000	0.00000000000000	0.00000000000000	0.00000000000000	0.00000000000000	0.00000000000000	5.53072600000000	0.00000000000000	0.00000000000000	0.00000000000000	0.00000000000000	
10.19496300000000	-1.66992100000000	731.97396400000002	31.27977400000000	0.05391300000000	0.00000000000000	0.12093100000000	0.00000000000000	0.00000000000000	0.00000000000000	0.00000000000000	0.00000000000000	0.00000000000000	0.00000000000000	5.63691100000000	0.00000000000000	0.00000000000000	0.00000000000000	0.00000000000000	
10.19662800000000	-2.26790400000000	732.06973000000005	31.29170000000000	0.05285700000000	0.00000000000000	0.12091900000000	0.00000000000000	0.00000000000000	0.00000000000000	0.00000000000000	0.00000000000000	0.00000000000000	0.00000000000000	5.74388600000000	0.00000000000000	0.00000000000000	0.00000000000000	0.00000000000000	
10.19829000000000	-2.86671100000000	732.16295400000001	31.30578500000000	0.05179800000000	0.00000000000000	0.12090700000000	0.00000000000000	0.00000000000000	0.00000000000000	0.00000000000000	0.00000000000000	0.00000000000000	0.00000000000000	5.85157000000000	0.00000000000000	0.00000000000000	0.00000000000000	0.00000000000000	
10.19996900000000	-3.46602600000000	732.25496599999997	31.32206400000000	0.05073600000000	0.00000000000000	0.12089600000000	0.00000000000000	0.00000000000000	0.00000000000000	0.00000000000000	0.00000000000000	0.00000000000000	0.00000000000000	5.95988300000000	0.00000000000000	0.00000000000000	0.00000000000000	0.00000000000000	
10.20163200000000	-4.06552900000000	732.34712300000001	31.34057300000000	0.04967200000000	0.00000000000000	0.12088600000000	0.00000000000000	0.00000000000000	0.00000000000000	0.00000000000000	0.00000000000000	0.00000000000000	0.00000000000000	6.06874500000000	0.00000000000000	0.00000000000000	0.00000000000000	0.00000000000000	
10.20329200000000	-4.66490600000000	732.44080699999995	31.36134600000000	0.04860500000000	0.00000000000000	0.12087600000000	0.00000000000000	0.00000000000000	0.00000000000000	0.00000000000000	0.00000000000000	0.00000000000000	0.00000000000000	6.17807500000000	0.00000000000000	0.00000000000000	0.00000000000000	0.00000000000000	
10.20497400000000	-5.26384100000000	732.53741500000001	31.38441600000000	0.04753600000000	0.00000000000000	0.12086700000000	0.00000000000000	0.00000000000000	0.00000000000000	0.00000000000000	0.00000000000000	0.00000000000000	0.00000000000000	6.28779300000000	0.00000000000000	0.00000000000000	0.00000000000000	0.00000000000000	
10.20662300000000	-5.86202500000000	732.63836100000003	31.40981300000000	0.04646500000000	0.00000000000000	0.12085900000000	0.00000000000000	0.00000000000000	0.00000000000000	0.00000000000000	0.00000000000000	0.00000000000000	0.00000000000000	6.39781800000000	0.00000000000000	0.00000000000000	0.00000000000000	0.00000000000000	
10.20829800000000	-6.45915200000000	732.74506099999996	31.43756600000000	0.04539200000000	0.00000000000000	0.12085100000000	0.00000000000000	0.00000000000000	0.00000000000000	0.00000000000000	0.00000000000000	0.00000000000000	0.00000000000000	6.50807200000000	0.00000000000000	0.00000000000000	0.00000000000000	0.00000000000000	
10.20996700000000	-7.05492300000000	732.85893599999997	31.46770400000000	0.04431800000000	0.00000000000000	0.12084400000000	0.00000000000000	0.00000000000000	0.00000000000000	0.00000000000000	0.00000000000000	0.00000000000000	0.00000000000000	6.61847400000000	0.00000000000000	0.00000000000000	0.00000000000000	0.00000000000000	
10.21162900000000	-7.64904700000000	732.98140300000000	31.50025400000000	0.04324200000000	0.00000000000000	0.12083800000000	0.00000000000000	0.00000000000000	0.00000000000000	0.00000000000000	0.00000000000000	0.00000000000000	0.00000000000000	6.72894700000000	0.00000000000000	0.00000000000000	0.00000000000000	0.00000000000000	
10.21329200000000	-8.24123900000000	733.11387000000002	31.53524200000000	0.04216600000000	0.00000000000000	0.12083300000000	0.00000000000000	0.00000000000000	0.00000000000000	0.00000000000000	0.00000000000000	0.00000000000000	0.00000000000000	6.83941400000000	0.00000000000000	0.00000000000000	0.00000000000000	0.00000000000000	
